<svg xmlns="http://www.w3.org/2000/svg" width="20" height="20" viewBox="0 0 20 20">
  <defs>
    <style>
      .cls-1 {
        fill: #333;
        fill-rule: evenodd;
      }
    </style>
  </defs>
  <path id="Icon-Tickets" class="cls-1" d="M18.6,8.61A1.944,1.944,0,0,0,18,10a2,2,0,0,0,.6,1.417A1.866,1.866,0,0,0,20,12l-0.015,4a1.961,1.961,0,0,1-.587,1.4,1.863,1.863,0,0,1-1.385.608H1.957a1.86,1.86,0,0,1-1.385-.608A1.958,1.958,0,0,1-.015,16L0,12a1.82,1.82,0,0,0,1.394-.559A2.05,2.05,0,0,0,2,10a1.98,1.98,0,0,0-.63-1.39A1.836,1.836,0,0,0,0,8L-0.015,4.025a1.961,1.961,0,0,1,.587-1.4,1.863,1.863,0,0,1,1.385-.608H18.014a1.865,1.865,0,0,1,1.385.608,1.964,1.964,0,0,1,.587,1.4L20,8A1.9,1.9,0,0,0,18.6,8.61ZM6,5H4V7H6V5ZM6,9H4v2H6V9Zm0,4H4v2H6V13ZM16,5H8V7h8V5Zm0,4H8v2h8V9Zm0,4H8v2h8V13Z"/>
</svg>
