<svg 
 xmlns="http://www.w3.org/2000/svg"
 xmlns:xlink="http://www.w3.org/1999/xlink"
 width="20px" height="18px">
<path fill-rule="evenodd"  fill="rgb(51, 51, 51)"
 d="M7.000,18.000 L7.000,14.000 L20.000,14.000 L20.000,18.000 L7.000,18.000 ZM7.000,7.000 L20.000,7.000 L20.000,11.000 L7.000,11.000 L7.000,7.000 ZM7.000,0.000 L20.000,0.000 L20.000,4.000 L7.000,4.000 L7.000,0.000 ZM-0.000,14.000 L4.000,14.000 L4.000,18.000 L-0.000,18.000 L-0.000,14.000 ZM-0.000,7.000 L4.000,7.000 L4.000,11.000 L-0.000,11.000 L-0.000,7.000 ZM-0.000,0.000 L4.000,0.000 L4.000,4.000 L-0.000,4.000 L-0.000,0.000 Z"/>
</svg>