<?xml version="1.0" encoding="UTF-8"?>
<svg width="20px" height="20px" viewBox="0 0 20 20" version="1.1" xmlns="http://www.w3.org/2000/svg" xmlns:xlink="http://www.w3.org/1999/xlink">
    <!-- Generator: Sketch 46.2 (44496) - http://www.bohemiancoding.com/sketch -->
    <title>icon-box</title>
    <desc>Created with Sketch.</desc>
    <defs></defs>
    <g id="Page-1" stroke="none" stroke-width="1" fill="none" fill-rule="evenodd">
        <g id="icon-box" fill-rule="nonzero">
            <g id="Shape">
                <path d="M16.6846875,20 L3.3153125,20 C1.48429687,20 0,18.5157031 0,16.6846875 L0,3.3153125 C0,1.48429687 1.48429687,0 3.3153125,0 L16.6846875,0 C18.5157031,0 20,1.48429687 20,3.3153125 L20,16.6846875 C20,18.5157031 18.5157031,20 16.6846875,20" fill="#0061D5"></path>
                <path d="M10.2359375,8.42078125 C9.19539063,8.42078125 8.28992188,9.00609375 7.83390625,9.86539063 C7.37773438,9.00609375 6.47273438,8.42078125 5.43148438,8.42078125 C4.84287385,8.42015397 4.27003628,8.61103585 3.79945313,8.96460938 L3.79945313,6.67375 C3.7939957,6.3774544 3.5519704,6.14026196 3.255625,6.14078125 C2.95859375,6.14078125 2.71953125,6.37773438 2.71273438,6.67375 L2.71273438,11.1848438 L2.71328125,11.1848438 C2.73726563,12.6660156 3.94429688,13.8592188 5.43148438,13.8592188 C6.47273438,13.8592188 7.37773438,13.2733594 7.83390625,12.4149219 C8.28992188,13.2733594 9.19539063,13.8592188 10.2359375,13.8592188 C11.7371875,13.8592188 12.955,12.641875 12.955,11.1394531 C12.955,9.6378125 11.7371875,8.42078125 10.2359375,8.42078125 M5.43148438,12.7705469 C4.530625,12.7705469 3.79945313,12.0407812 3.79945313,11.1398437 C3.79945313,10.2392187 4.530625,9.509375 5.43148438,9.509375 C6.33226563,9.509375 7.061875,10.2392187 7.061875,11.1394531 C7.061875,12.0405469 6.33226563,12.7705469 5.43148438,12.7705469 M10.2359375,12.7705469 C9.33484375,12.7705469 8.60421875,12.0405469 8.60421875,11.1394531 C8.60421875,10.2392187 9.33484375,9.509375 10.2359375,9.509375 C11.1366406,9.509375 11.866875,10.2392187 11.866875,11.1394531 C11.866875,12.0405469 11.1366406,12.7705469 10.2359375,12.7705469" fill="#FFFFFF"></path>
                <path d="M17.1742188,12.9488281 L15.69625,11.1359375 L17.1760156,9.31953125 C17.363125,9.07992187 17.3094531,8.7453125 17.0511719,8.56757812 C16.7925781,8.38828125 16.4297656,8.43421875 16.2296875,8.66671875 L16.2296875,8.66640625 L14.9565625,10.2267187 L13.6846094,8.66640625 L13.6846094,8.66671875 C13.4865625,8.43421875 13.1214844,8.38828125 12.8636719,8.56757812 C12.6058594,8.74546875 12.5519531,9.07992187 12.74,9.31953125 L12.7394531,9.31953125 L14.2166406,11.1359375 L12.7394531,12.9488281 L12.74,12.9488281 C12.5519531,13.1892187 12.6058594,13.5227344 12.8636719,13.70125 C13.1214844,13.8797656 13.4865625,13.8342969 13.6846094,13.6014844 L14.9565625,12.0433594 L16.2278906,13.6014844 C16.4282031,13.8342969 16.7908594,13.8797656 17.0494531,13.70125 C17.3078125,13.5227344 17.3617188,13.1892187 17.1742188,12.9488281" fill="#FFFFFF"></path>
            </g>
        </g>
    </g>
</svg>