<svg xmlns="http://www.w3.org/2000/svg" width="60" height="120" viewBox="0 0 60 120">
  <defs>
    <style>
      .cls-1 {
        fill: #9e9e9e;
      }

      .cls-1, .cls-2 {
        fill-rule: evenodd;
      }

      .cls-2 {
        fill: #333;
      }
    </style>
  </defs>
  <path id="icon-search" class="cls-1" d="M33.3,32.583h-0.9l-0.32-.309a7.444,7.444,0,1,0-.8.8l0.309,0.32v0.9L37.3,40.007l1.7-1.7Zm-6.863,0a5.147,5.147,0,1,1,5.148-5.148A5.141,5.141,0,0,1,26.435,32.583Z"/>
  <path id="icon-search-2" data-name="icon-search" class="cls-2" d="M33.3,92.583h-0.9l-0.32-.309a7.444,7.444,0,1,0-.8.8l0.309,0.32v0.9l5.719,5.707,1.7-1.7Zm-6.863,0a5.147,5.147,0,1,1,5.148-5.148A5.141,5.141,0,0,1,26.435,92.583Z"/>
</svg>
