<?xml version="1.0" encoding="UTF-8"?>
<svg width="20px" height="20px" viewBox="0 0 20 20" version="1.1" xmlns="http://www.w3.org/2000/svg" xmlns:xlink="http://www.w3.org/1999/xlink">
    <!-- Generator: Sketch 46.2 (44496) - http://www.bohemiancoding.com/sketch -->
    <title>icon-skydrive</title>
    <desc>Created with Sketch.</desc>
    <defs></defs>
    <g id="Page-1" stroke="none" stroke-width="1" fill="none" fill-rule="evenodd">
        <g id="icon-skydrive" fill="#094AB1" fill-rule="nonzero">
            <g transform="translate(0.000000, 4.000000)">
                <path d="M6.47542804,11.7957885 C5.26436769,11.4931891 4.58966523,10.5305332 4.58753138,9.10216916 C4.5868498,8.64550765 4.61989044,8.426696 4.73387985,8.13297538 C5.01330052,7.41298753 5.75307959,6.86980603 6.72654239,6.6698681 C7.21093218,6.57037919 7.36016425,6.46355941 7.36016425,6.21631758 C7.36016425,6.13873736 7.41781628,5.90769866 7.48827405,5.7028973 C7.80837816,4.77250608 8.40104657,3.99689978 9.0343473,3.67961961 C9.69715235,3.34755387 10.0317858,3.27266783 10.8335731,3.27697289 C11.9722745,3.2830874 12.5403734,3.53009461 13.3349452,4.3645529 L13.7719328,4.82347933 L14.1634122,4.68800197 C16.0581108,4.03230103 17.9469374,5.14847964 18.0991907,7.0138057 L18.1408388,7.52408812 L18.5139485,7.65776849 C19.579492,8.03954134 20.0803313,8.84120934 19.9895377,10.0196734 C19.9301621,10.7903428 19.569832,11.4056369 18.9990067,11.7110865 L18.7306564,11.8546818 L12.7668855,11.8661729 C8.18403061,11.8750032 6.72723051,11.8587057 6.47542804,11.7957885 L6.47542804,11.7957885 Z M2.01729228,10.9432188 C1.31028777,10.7751949 0.56114558,10.1507428 0.209854842,9.43661784 C0.0105840665,9.03152859 0,8.97194849 0,8.25530036 C0,7.5736596 0.0170059407,7.4643049 0.175640454,7.12584808 C0.510057635,6.41234765 1.15079736,5.89680071 1.95473422,5.69436717 C2.12440172,5.65164424 2.28383184,5.58345271 2.30902323,5.54283021 C2.33421462,5.50220705 2.3621985,5.28091421 2.37120839,5.05106761 C2.42716959,3.62356801 3.36378805,2.36577393 4.67161691,1.96182631 C5.37817839,1.74359204 6.26584144,1.79727455 7.03435608,2.10471646 C7.27809763,2.20222618 7.25065114,2.22313217 7.76601982,1.54736344 C8.07080161,1.14771892 8.6866501,0.650685916 9.19075314,0.397498006 C9.73480692,0.124247555 10.3006318,-0.00164254384 10.9772846,1.61727202e-05 C12.868477,0.00465612263 14.4983709,1.18757334 15.1010728,2.99291821 C15.2936373,3.56973739 15.2840363,3.73128301 15.0569016,3.7360442 C14.9577783,3.73812169 14.6737649,3.79270926 14.425757,3.8573494 L13.9748364,3.9748771 L13.5633816,3.56342823 C12.4032762,2.40332214 10.5099669,2.15257217 8.90046136,2.94587122 C8.25745474,3.2627988 7.74074913,3.71779176 7.35045594,4.31074263 C7.07220968,4.73347287 6.71744357,5.52208806 6.71744357,5.71788346 C6.71744357,5.85678835 6.60497066,5.92619755 6.12463099,6.0837245 C4.63748051,6.57143305 3.76946778,7.69775991 3.77006743,9.13898799 C3.77026404,9.66355071 3.9053685,10.3054137 4.09291358,10.6730328 C4.16361252,10.8116139 4.20305996,10.9433964 4.18057455,10.9658818 C4.12306997,11.0233863 2.27306821,11.0040054 2.01729228,10.9432188 L2.01729228,10.9432188 Z"></path>
            </g>
        </g>
    </g>
</svg>