<svg id="old" xmlns="http://www.w3.org/2000/svg" width="113" height="72" viewBox="0 0 113 72">
  <metadata><?xpacket begin="﻿" id="W5M0MpCehiHzreSzNTczkc9d"?>
<x:xmpmeta xmlns:x="adobe:ns:meta/" x:xmptk="Adobe XMP Core 5.6-c138 79.159824, 2016/09/14-01:09:01        ">
   <rdf:RDF xmlns:rdf="http://www.w3.org/1999/02/22-rdf-syntax-ns#">
      <rdf:Description rdf:about=""/>
   </rdf:RDF>
</x:xmpmeta>
                                                                                                    
                                                                                                    
                                                                                                    
                                                                                                    
                                                                                                    
                                                                                                    
                                                                                                    
                                                                                                    
                                                                                                    
                                                                                                    
                                                                                                    
                                                                                                    
                                                                                                    
                                                                                                    
                                                                                                    
                                                                                                    
                                                                                                    
                                                                                                    
                                                                                                    
                                                                                                    
                           
<?xpacket end="w"?></metadata>
<defs>
    <style>
      .cls-1 {
        fill: #9e9e9e;
      }

      .cls-1, .cls-2, .cls-3, .cls-4 {
        fill-rule: evenodd;
      }

      .cls-2 {
        fill: #c4c4c4;
      }

      .cls-3 {
        fill: #fc6668;
      }

      .cls-4 {
        fill: #39cd54;
      }
    </style>
  </defs>
  <path id="_" data-name="" class="cls-1" d="M64.139,60.419L69,62.829l-4.862,2.382V60.419ZM59.7,57.17l-0.171.014q-0.161.014-.231,0.029t-0.236.043a1.466,1.466,0,0,0-.286.076q-0.12.048-.281,0.124a1.955,1.955,0,0,0-.311.186,2.337,2.337,0,0,0-.291.252l-0.141.162a2.387,2.387,0,0,0-.322.586,3.644,3.644,0,0,0-.251.948A19.155,19.155,0,0,0,57,62.353V64.03q0.01,0.391.055,1.081t0.125,1.3a3.476,3.476,0,0,0,.266.962,3.128,3.128,0,0,0,.291.557,1.83,1.83,0,0,0,.156.176,2,2,0,0,0,.568.391,3.163,3.163,0,0,0,.512.2,4.946,4.946,0,0,0,.547.1l0.362,0.038,0.492,0.038q0.482,0.029,2.014.072T66,69q3.777,0,6.3-.181l0.166-.014q0.156-.014.231-0.029l0.241-.043a1.451,1.451,0,0,0,.286-0.076q0.121-.048.281-0.119a1.709,1.709,0,0,0,.311-0.181,2.336,2.336,0,0,0,.291-0.252l0.141-.162a2.383,2.383,0,0,0,.321-0.586,3.644,3.644,0,0,0,.251-0.948A19.179,19.179,0,0,0,75,63.649V61.972q-0.01-.391-0.055-1.081t-0.126-1.3a3.482,3.482,0,0,0-.266-0.962,3.15,3.15,0,0,0-.291-0.557,1.866,1.866,0,0,0-.156-0.176,2.344,2.344,0,0,0-.291-0.252,1.963,1.963,0,0,0-.311-0.186q-0.161-.076-0.281-0.124a1.464,1.464,0,0,0-.286-0.076q-0.166-.029-0.236-0.043t-0.231-.029L72.3,57.17l-0.733-.038q-0.733-.048-2.305-0.091T66,57q-3.777,0-6.3.172h0Z"/>
  <path id="icon-dev" class="cls-1" d="M35.111,36H20.889A1.889,1.889,0,0,1,19,34.111V19.889A1.889,1.889,0,0,1,20.889,18H35.111A1.889,1.889,0,0,1,37,19.889V34.111A1.889,1.889,0,0,1,35.111,36Zm-2.348-8.989L29,23.183l1.141-1.172,4.87,5-4.87,5L29,30.839Zm-9.526,0L27,23.183l-1.141-1.172-4.87,5,4.87,5L27,30.839Z"/>
  <path id="icon-form" class="cls-1" d="M54.111,36H39.889A1.889,1.889,0,0,1,38,34.111V19.889A1.889,1.889,0,0,1,39.889,18H54.111A1.889,1.889,0,0,1,56,19.889V34.111A1.889,1.889,0,0,1,54.111,36ZM41,32h6V30H41v2ZM53,22H41v2H53V22Zm0,4H41v2H53V26Z"/>
  <path id="icon-binaka" class="cls-1" d="M16,33H3L0,36,0.009,20.076A2.315,2.315,0,0,1,2.085,18H15.924A2.241,2.241,0,0,1,18,20V31A2.168,2.168,0,0,1,16,33ZM9,30a5.958,5.958,0,0,0,5-4H4A5.958,5.958,0,0,0,9,30ZM6.5,21.008A1.49,1.49,0,1,0,8,22.5,1.5,1.5,0,0,0,6.5,21.008Zm5.01,0a1.49,1.49,0,1,0,1.5,1.49A1.495,1.495,0,0,0,11.506,21.008Z"/>
  <path id="icon-web" class="cls-1" d="M88.586,12.572H87.7v-2.7a0.866,0.866,0,0,0-.887-0.887H81.4V7.163h1.775a0.933,0.933,0,0,0,.655-0.254,0.827,0.827,0,0,0,.275-0.634V4.459h1.775a1.774,1.774,0,0,0,1.268-.528A1.674,1.674,0,0,0,87.7,2.684V2.3A7.162,7.162,0,0,1,92.22,8.98a6.855,6.855,0,0,1-1.9,4.859,1.726,1.726,0,0,0-1.732-1.268h0Zm-8.979,1.183A6.878,6.878,0,0,1,77.769,8.98a6.606,6.606,0,0,1,.211-1.606l4.31,4.31v0.887a1.879,1.879,0,0,0,1.817,1.817v1.732A7.11,7.11,0,0,1,79.607,13.755ZM75.995,8.98a8.667,8.667,0,0,0,2.641,6.359,8.977,8.977,0,0,0,12.718,0A8.669,8.669,0,0,0,93.995,8.98a8.671,8.671,0,0,0-2.641-6.359,8.977,8.977,0,0,0-12.718,0A8.669,8.669,0,0,0,75.995,8.98Z"/>
  <path id="icon-form-2" data-name="icon-form" class="cls-1" d="M73,18H59a2,2,0,0,1-2-2V2a2,2,0,0,1,2-2H73a2,2,0,0,1,2,2V16A2,2,0,0,1,73,18ZM59,15h8V13H59v2ZM73,3H59V6H73V3Zm0,5H59v3H73V8Zm-1,2H60V9H72v1ZM71,5H60V4H71V5Z"/>
  <path id="icon-twitter" class="cls-1" d="M53.75,18H40.25A2.25,2.25,0,0,1,38,15.75V2.25A2.25,2.25,0,0,1,40.25,0h13.5A2.25,2.25,0,0,1,56,2.25v13.5A2.25,2.25,0,0,1,53.75,18ZM51.6,5.035a3.834,3.834,0,0,1-1.267.5,1.955,1.955,0,0,0-1.459-.658,2.04,2.04,0,0,0-2,2.082,2.448,2.448,0,0,0,.049.477,5.6,5.6,0,0,1-4.118-2.179,2.135,2.135,0,0,0-.272,1.051,2.105,2.105,0,0,0,.89,1.734,1.95,1.95,0,0,1-.9-0.264V7.807a2.063,2.063,0,0,0,1.6,2.044,2.031,2.031,0,0,1-.526.071A2.415,2.415,0,0,1,43.22,9.89a2.013,2.013,0,0,0,1.867,1.444,3.9,3.9,0,0,1-2.479.89,3.969,3.969,0,0,1-.482-0.026,5.477,5.477,0,0,0,3.067.935,5.775,5.775,0,0,0,5.682-5.924c0-.09,0-0.181-0.006-0.271a4.4,4.4,0,0,0,1-1.077,3.877,3.877,0,0,1-1.15.322A2.063,2.063,0,0,0,51.6,5.035Z"/>
  <path id="icon-facebook" class="cls-1" d="M34.75,18H21.25A2.25,2.25,0,0,1,19,15.75V2.25A2.25,2.25,0,0,1,21.25,0h13.5A2.25,2.25,0,0,1,37,2.25v13.5A2.25,2.25,0,0,1,34.75,18ZM30,6h1V4c-0.164-.024-1.344,0-2,0-1.373,0-2,.461-2,2V8H25v2h2v4h2V10h1l1-2H29V7A0.91,0.91,0,0,1,30,6Z"/>
  <path id="icon-mail" class="cls-1" d="M8.979,10.427L1.754,5.777V3.891L8.979,8.584,16.2,3.891V5.777ZM1.754,2.005a1.646,1.646,0,0,0-1.246.57A1.878,1.878,0,0,0-.021,3.891V15.12a1.875,1.875,0,0,0,.528,1.316,1.644,1.644,0,0,0,1.246.57H16.2a1.646,1.646,0,0,0,1.247-.57,1.878,1.878,0,0,0,.528-1.316V3.891a1.88,1.88,0,0,0-.528-1.316,1.648,1.648,0,0,0-1.247-.57H1.754Z"/>
  <path id="icon-shop" class="cls-1" d="M98,15V11h6v4H98Zm15-6-1-5H96L95,9v2h1v6h10V11h4v6h2V11h1V9ZM96,1V3h16V1H96Z"/>
  <path id="opencart" class="cls-1" d="M38.012,39c2.3,2.447,4.459,2.778,12.962,2.8,8.475,0,4.742,1.9-.481,6.595,1.669-2.91,7.382-5.471-1.98-5.329-8.993.132-9.521-2.6-10.5-4.063h0Zm6.043,11.707a1.282,1.282,0,1,1-1.273-1.294,1.3,1.3,0,0,1,1.291,1.294H44.055Zm5.845,0a1.282,1.282,0,1,1-1.273-1.294A1.277,1.277,0,0,1,49.9,50.711h0Z"/>
  <path id="wordpress" class="cls-1" d="M58.29,45a7.711,7.711,0,0,0,4.345,6.939L58.958,41.862A7.683,7.683,0,0,0,58.29,45ZM71.2,44.611a4.06,4.06,0,0,0-.636-2.126,3.608,3.608,0,0,1-.757-1.808,1.335,1.335,0,0,1,1.295-1.368c0.034,0,.067,0,0.1.006a7.707,7.707,0,0,0-11.647,1.451c0.181,0.005.351,0.009,0.5,0.009,0.806,0,2.055-.1,2.055-0.1a0.319,0.319,0,0,1,.049.635s-0.418.049-.882,0.073l2.807,8.351,1.687-5.06-1.2-3.291c-0.415-.024-0.809-0.074-0.809-0.074a0.319,0.319,0,0,1,.049-0.635s1.273,0.1,2.031.1c0.806,0,2.055-.1,2.055-0.1a0.319,0.319,0,0,1,.049.635s-0.419.049-.882,0.074l2.786,8.288,0.769-2.57A9.309,9.309,0,0,0,71.2,44.611Zm-5.069,1.063L63.822,52.4a7.709,7.709,0,0,0,4.738-.123,0.671,0.671,0,0,1-.055-0.106ZM72.764,41.3a5.893,5.893,0,0,1,.052.793,7.273,7.273,0,0,1-.586,2.761l-2.355,6.809A7.711,7.711,0,0,0,72.764,41.3h0ZM66,36.013A8.987,8.987,0,1,0,74.987,45,9,9,0,0,0,66,36.013Zm0,17.562A8.575,8.575,0,1,1,74.574,45,8.585,8.585,0,0,1,66,53.575h0Z"/>
  <path id="shopify" class="cls-1" d="M87.382,54.008V54l-0.032.007L77,52.087s1.329-10.206,1.382-10.565c0.064-.475.074-0.485,0.585-0.644,0.074-.032.723-0.222,1.637-0.507,0.351-1.478,1.478-4.38,3.817-4.38a1.238,1.238,0,0,1,.936.528h0.1a2.2,2.2,0,0,1,1.9,1.794c0.33-.105.532-0.169,0.542-0.169a0.645,0.645,0,0,1,.254-0.014V38.113a0.207,0.207,0,0,1,.138.063c0.117,0.095,1.085,1.056,1.085,1.056s1.393,0.105,1.457.105a0.287,0.287,0,0,1,.181.158C91.029,39.591,93,52.8,93,52.8ZM84.373,36.6c-1.68,0-2.637,2.2-3.02,3.546,0.457-.148.936-0.285,1.435-0.443a3.8,3.8,0,0,1,1.882-3A0.511,0.511,0,0,0,84.373,36.6Zm0.914,2.216a4.393,4.393,0,0,0-.234-1.562,3.149,3.149,0,0,0-1.574,2.227c0.627-.2,1.233-0.38,1.808-0.559V38.821ZM85.7,37.142a4.027,4.027,0,0,1,.213,1.4v0.19c0.308-.105.617-0.2,0.872-0.274A1.649,1.649,0,0,0,85.7,37.142ZM85.457,42.42l-0.68,2.037a3.216,3.216,0,0,0-1.35-.327c-1.1,0-1.148.686-1.148,0.855,0,0.929,2.445,1.288,2.445,3.472a2.583,2.583,0,0,1-2.573,2.829,3.552,3.552,0,0,1-2.68-1.1l0.478-1.562a3.408,3.408,0,0,0,1.722.8,0.7,0.7,0,0,0,.734-0.7c0-1.214-2-1.267-2-3.272a3.331,3.331,0,0,1,3.668-3.3A2.856,2.856,0,0,1,85.457,42.42Z"/>
  <path id="magento" class="cls-1" d="M104.008,36.009L96,40.508v8.986l2.286,1.286-0.016-8.988,5.721-3.215,5.721,3.215v8.985L112,49.494V40.5Zm1.134,14.77L104,51.425l-1.148-.64V41.792l-2.283,1.284,0,8.989L104,53.991l3.429-1.926V43.076l-2.285-1.284v8.987Z"/>
  <g id="pestashop_" data-name="pestashop]">
    <path id="prestashop" class="cls-2" d="M12.875,71.12a5.532,5.532,0,0,1-.136-1.036s0-.008,0-0.012H5.263s0,0.008,0,.012a5.553,5.553,0,0,1-.137,1.036c-0.1-.048-0.2-0.1-0.3-0.15a8.994,8.994,0,0,0,8.346,0C13.075,71.021,12.976,71.072,12.875,71.12Zm1.877-10.444h0Zm-3.689.169a3.356,3.356,0,0,0-1.211-1.356A3.177,3.177,0,0,0,8.171,59a3.277,3.277,0,0,0-3.114,2.414,5.426,5.426,0,0,1,1.271-.837,4.922,4.922,0,0,1,1.7-.455l0.049,0c0.113-.008.227-0.013,0.341-0.013a4.873,4.873,0,0,1,1,.107,6.51,6.51,0,0,1,.942.3q0.191,0.083.375,0.181l0.028,0.015,0.007,0,0.038,0.022h0l0.055,0.032,0,0,0.2,0.116,0.009,0,0.006,0-0.022-.042Zm0.977,0.737,0,0a3.764,3.764,0,0,1,.677-1,1.43,1.43,0,0,1,.973-0.47,1.293,1.293,0,0,1,.837.345v0c0.024,0.02.046,0.042,0.07,0.064s0.028,0.025.042,0.039q0.055,0.054.109,0.115v0l0-.009A1.675,1.675,0,0,0,13.5,59.272C12.823,59.272,12.247,60.239,12.04,61.582ZM9,54A9,9,0,0,0,4.78,70.946a5.175,5.175,0,0,0,.085-0.551c0.016-.168.027-0.338,0.027-0.51A0.187,0.187,0,0,1,5.079,69.7h7.844a0.187,0.187,0,0,1,.187.187c0,0.171.01,0.341,0.027,0.51a5.272,5.272,0,0,0,.084.551A9,9,0,0,0,9,54ZM8.995,69.3a6.336,6.336,0,1,1,6.336-6.336A6.336,6.336,0,0,1,8.995,69.3Zm4.21,1.643c0.107-.057.213-0.117,0.319-0.178q-0.194-.2-0.4-0.373A5.171,5.171,0,0,0,13.2,70.946Z"/>
    <path id="pestashop" class="cls-1" d="M14.894,62.9a0.994,0.994,0,0,0-.021-0.109c0-.012-0.008-0.023-0.011-0.035a0.7,0.7,0,0,0-.085-0.185l-0.014-.02c-0.01-.013-0.019-0.025-0.029-0.036a0.37,0.37,0,0,0-.047-0.043l-0.019-.012a0.263,0.263,0,0,0-.043-0.023l-0.019-.007a0.193,0.193,0,0,0-.13,0l-0.019.007a0.267,0.267,0,0,0-.043.023l-0.019.012a0.357,0.357,0,0,0-.047.043c-0.01.011-.02,0.024-0.029,0.036l-0.014.02a0.7,0.7,0,0,0-.085.185l0,0.008a1,1,0,0,0-.023.1c0,0.011,0,.021-0.006.032a0.966,0.966,0,0,0-.009.122c0,0.006,0,.011,0,0.017h0a0.549,0.549,0,0,0,.364.623,0.225,0.225,0,0,0,.1-0.025l0.015-.008A0.3,0.3,0,0,0,14.7,63.6l0.02-.018a0.409,0.409,0,0,0,.046-0.051,0.5,0.5,0,0,0,.029-0.041c0.006-.009.011-0.02,0.017-0.03a0.65,0.65,0,0,0,.028-0.059l0.01-.022a0.822,0.822,0,0,0,.029-0.091,0.94,0.94,0,0,0,.02-0.107s0-.009,0-0.014c0-.034.006-0.069,0.006-0.1,0-.008,0-0.016,0-0.024s0-.015,0-0.022c0-.036,0-0.072-0.007-0.107C14.9,62.905,14.895,62.9,14.894,62.9Zm-0.341.058a0.268,0.268,0,1,1,.136-0.234A0.206,0.206,0,0,1,14.553,62.955Zm-4.283-.019h0q-0.005-.042-0.014-0.084v0a0.775,0.775,0,0,0-.022-0.08v0c-0.009-.026-0.019-0.052-0.03-0.077v0c-0.011-.025-0.024-0.05-0.037-0.073a0.858,0.858,0,0,0-.418-0.367h0A0.833,0.833,0,0,0,9.593,62.2h0a0.84,0.84,0,0,0-.324,0H9.26a0.835,0.835,0,0,0-.149.045h0a0.85,0.85,0,0,0-.139.072h0a0.853,0.853,0,0,0-.123.1v0h0a0.857,0.857,0,0,0-.155.2l0,0c-0.013.023-.024,0.046-0.035,0.069l0,0.007c-0.01.022-.018,0.045-0.026,0.068l0,0.013C8.608,62.8,8.6,62.82,8.6,62.842l0,0.019c0,0.022-.008.044-0.011,0.066,0,0.007,0,.013,0,0.02a0.836,0.836,0,0,0,0,.089,0.854,0.854,0,0,0,.016.164v0a0.837,0.837,0,0,0,.047.153v0a0.854,0.854,0,0,0,.173.265,0.868,0.868,0,0,0,.2.153h0c0.023,0.013.047,0.024,0.071,0.035l0.006,0c0.022,0.01.045,0.018,0.069,0.026l0.012,0c0.021,0.007.044,0.012,0.066,0.017l0.018,0c0.022,0,.044.008,0.066,0.01l0.02,0a0.861,0.861,0,0,0,.088,0,0.851,0.851,0,0,0,.851-0.851s0,0,0-.006,0,0,0-.006A0.85,0.85,0,0,0,10.27,62.937Zm-0.845-.012a0.32,0.32,0,1,1,.32-0.32A0.32,0.32,0,0,1,9.425,62.925ZM3.265,63.957l0.006-.016c0.047-.122.1-0.243,0.152-0.362l0.046-.1c0.044-.094.091-0.186,0.139-0.278,0.02-.037.039-0.075,0.059-0.112,0.011-.02.024-0.04,0.035-0.06,0.052-.091.1-0.182,0.159-0.27L3.9,62.7c0.069-.107.141-0.212,0.216-0.314l0.019-.027c0.079-.106.162-0.209,0.247-0.309l0.055-.064q0.127-.146.264-0.284l0.054-.053c0.1-.095.2-0.187,0.3-0.275h0a3.231,3.231,0,0,1,4.8-1.871,3.3,3.3,0,0,1,1.212,1.32l0,0.008L11.1,60.867h0a5.457,5.457,0,0,1,.655.476q0.1,0.088.2,0.18l0.066,0.06v0l0.022-.046c0.207-1.307.784-2.249,1.464-2.249a1.652,1.652,0,0,1,1.248,1.357l0,0.009h0A3.1,3.1,0,0,1,15,60.94h0l0,0.006,0.011,0.036L15,60.939A6.338,6.338,0,0,0,2.658,62.968a6.269,6.269,0,0,0,.315,1.972v0q0.06-.28.145-0.555Q3.185,64.167,3.265,63.957Zm9.963,4.228a11.055,11.055,0,0,0,2.667-1.943h0s-0.358-.526-0.9-1.248q-0.181-.242-0.364-0.484L14.6,64.465q-0.174-.228-0.35-0.454l-0.018-.023q-0.187-.237-0.378-0.471l0-.006q-0.2-.24-0.4-0.475l-0.026-.03c-0.083-.1-0.167-0.19-0.252-0.283l-0.088-.1q-0.105-.115-0.213-0.227c-0.056-.058-0.112-0.116-0.169-0.173s-0.106-.109-0.16-0.162c-0.116-.114-0.234-0.227-0.354-0.338q-0.08-.073-0.162-0.144v0a7.209,7.209,0,0,1,.311,1.005q0.025,0.134.043,0.261a4.235,4.235,0,0,1-.826,2.984l-0.133.223a2.4,2.4,0,0,0-.278.654,1.96,1.96,0,0,0-.039.2h0a1.766,1.766,0,0,0-.018.2,1.727,1.727,0,0,0,.021.334,1.772,1.772,0,0,0,.045.2c0.009,0.033.024,0.061,0.034,0.092h0c-0.011-.031-0.025-0.059-0.034-0.092a1.806,1.806,0,0,1-.045-0.2,1.761,1.761,0,0,1-.021-0.334,1.812,1.812,0,0,1,.018-0.2,1.939,1.939,0,0,1,.039-0.2,2.4,2.4,0,0,1,.278-0.654v0l0.132-.221a4.237,4.237,0,0,0,.826-2.984q-0.017-.127-0.043-0.261-0.013.093-.028,0.159l0,0.013c-0.006.027-.012,0.052-0.018,0.07a5.559,5.559,0,0,1-1.294,2.027c-0.081.088-.165,0.176-0.251,0.266-0.145.151-.3,0.3-0.459,0.465l-0.2.2c-0.061.061-.142,0.144-0.233,0.239-0.056.157-.12,0.335-0.174,0.521l-0.072-.027a8.461,8.461,0,0,1-1.929-1.044,8.452,8.452,0,0,0,1.6,1.5,3.265,3.265,0,0,0,.287.186c-0.041.655,0.248,1.283,1.551,1.471,0.073,0.01.147,0.012,0.22,0.016l0.234,0.773L11.651,69.7h1.255a0.187,0.187,0,0,1,.187.187c0,0.172.01,0.342,0.027,0.51q0.21,0.178.4,0.374a9.065,9.065,0,0,0,1.362-.972,7.821,7.821,0,0,0-1.822-1.534l0.037-.015C13.143,68.227,13.185,68.206,13.227,68.185Zm-2.6.905a6.35,6.35,0,0,1-3.269,0,6.37,6.37,0,0,0-.953.333l0.18-.595a6.324,6.324,0,0,1-.944-0.486L5.227,69.7h6.424l-0.084-.277A6.363,6.363,0,0,0,10.624,69.09ZM5.239,68.069A7.829,7.829,0,0,0,3.083,69.8a9.066,9.066,0,0,0,1.362.972h0c0.105,0.061.211,0.121,0.318,0.178a5.181,5.181,0,0,0,.085-0.551c0.017-.168.027-0.338,0.027-0.51A0.187,0.187,0,0,1,5.063,69.7H5.227L5.638,68.34Q5.434,68.212,5.239,68.069Z"/>
  </g>
  <g id="joomla">
    <path class="cls-1" d="M22.215,45.06l-0.336-.337a4.024,4.024,0,0,1-1.008-3.966,2.409,2.409,0,1,1,2.9-2.74,3.946,3.946,0,0,1,3.72,1.057L27.64,39.22,25.864,41l-0.144-.144a1.478,1.478,0,1,0-2.088,2.091l0.336,0.337,1.776,1.779,1.872,1.875L25.84,48.713l-1.872-1.875L22.215,45.06h0Zm1.992-1.971,1.872-1.875,1.776-1.779,0.336-.337a4.024,4.024,0,0,1,3.937-1.009,2.4,2.4,0,1,1,2.688,2.716,3.993,3.993,0,0,1-1.008,3.918l-0.144.144-1.728-1.779,0.144-.144a1.478,1.478,0,1,0-2.088-2.091l-0.336.337L27.88,42.969l-1.872,1.875-1.8-1.755h0ZM32.2,52.054a3.989,3.989,0,0,1-3.984-.985l-0.144-.144,1.776-1.779,0.144,0.144A1.478,1.478,0,0,0,32.081,47.2l-0.336-.337-1.776-1.779L28.1,43.21l1.776-1.779,1.872,1.875,1.776,1.779,0.36,0.361a4.029,4.029,0,0,1,1.056,3.773A2.4,2.4,0,0,1,34.6,54a2.479,2.479,0,0,1-2.4-1.947h0Zm-0.7-5L29.632,48.93l-1.776,1.779-0.336.337A3.99,3.99,0,0,1,23.752,52.1a2.4,2.4,0,1,1-2.9-2.86,3.987,3.987,0,0,1,1.032-3.822l0.144-.144L23.8,47.055l-0.144.144a1.478,1.478,0,0,0,2.088,2.091l0.336-.337,1.776-1.779L29.728,45.3,31.5,47.055h0Z"/>
  </g>
  <path id="Icon-Due-Over" class="cls-3" d="M28,72a9,9,0,1,1,9-9A9,9,0,0,1,28,72Zm0-16a7,7,0,1,0,7,7A7,7,0,0,0,28,56Zm0,12a1,1,0,1,1,1-1A1,1,0,0,1,28,68Zm0-3a1,1,0,0,1-1-1V59a1,1,0,0,1,2,0v5A1,1,0,0,1,28,65Z"/>
  <path id="Icon-Due" class="cls-4" d="M47,72a9,9,0,1,0-9-9A9,9,0,0,0,47,72Zm0-16a7,7,0,1,1-7,7A7,7,0,0,1,47,56Zm0,12a5,5,0,0,0,0-10v5H42A5,5,0,0,0,47,68Z"/>
  <path id="icon-disqus" class="cls-1" d="M66.5,35a8.453,8.453,0,0,1-4.873-1.542L57,35l1.891-4.728A8.495,8.495,0,1,1,66.5,35ZM70,25.484a2.993,2.993,0,0,0-3-3H63v8h4a2.922,2.922,0,0,0,3-3v-2Zm-3,3H65v-4h2c1.152,0,1,2,1,2C68,28.468,67,28.484,67,28.484Z"/>
  <path class="cls-1" d="M93,33.007h0V36H76V23h3.023c0-.058-0.01-0.115-0.01-0.174C79.013,20.162,81.47,18,84.5,18s5.486,2.162,5.486,4.828c0,0.059-.007.116-0.01,0.174H93v1h0v9ZM80,24.989H77v8h3v-8Zm5,8h3v-8H85v8Zm-4,0h3v-8H81v8ZM88,23c0-2-1.228-3-3.5-3S81,21,81,23c0,0-.011,0-0.012,0h7.03S88,23,88,23Zm1,1.989v8h3v-8H89Z"/>
  <path id="slack-icon" class="cls-1" d="M112.04,29.93l-0.425.179,0.265,0.633a1.643,1.643,0,0,1-.783,2.123,1.5,1.5,0,0,1-2.02-.823l-0.31-.736-5.029,2.113,0.135,0.322a1.642,1.642,0,0,1-.783,2.123,1.5,1.5,0,0,1-2.02-.823l-0.179-.425-0.633.266a1.643,1.643,0,0,1-2.123-.783,1.5,1.5,0,0,1,.823-2.021l0.736-.309-2.113-5.029-0.322.135a1.643,1.643,0,0,1-2.123-.783,1.5,1.5,0,0,1,.823-2.021l0.425-.179-0.266-.633a1.643,1.643,0,0,1,.783-2.123,1.5,1.5,0,0,1,2.021.823l0.309,0.736,5.029-2.113-0.135-.322a1.642,1.642,0,0,1,.783-2.123,1.5,1.5,0,0,1,2.02.823l0.179,0.425,0.633-.266a1.643,1.643,0,0,1,2.123.783,1.5,1.5,0,0,1-.823,2.021l-0.737.309,2.113,5.029,0.322-.135a1.643,1.643,0,0,1,2.123.783A1.5,1.5,0,0,1,112.04,29.93Zm-6.582-6.5-5.029,2.113,2.113,5.029,5.029-2.113Z"/>
  <path id="mercadolibre-2" data-name="mercadolibre" class="cls-1" d="M9,38c4.971,0,9,3.134,9,7s-4.029,7-9,7-9-3.134-9-7S4.029,38,9,38ZM2,41H5v3l1,1H8l1-2,6,5-2.627,1.97-2.626-.223L7,47,6,46H3L0,45S-0.836,41.51,2,41Zm4,3H7l2-2,5,4h1l3-1V42H14l-4-2H8L6,42v2ZM3.985,47.016l1-.008,3.023,2.977,0.008,1-1,.008-1,.008L4,49.016Z"/>
</svg>
