<svg xmlns="http://www.w3.org/2000/svg" width="18" height="131" viewBox="0 0 18 131">
  <defs>
    <style>
      .cls-1 {
        fill: #fff;
        fill-rule: evenodd;
      }
    </style>
  </defs>
  <path id="icon-magento" class="cls-1" d="M9,76l7,3.765v7.529l-2,1.882V80.706L9,77.882,4,80.706v8.471L2,87.294V79.765ZM8,89.177l1,0.941,1-.941V80.706l2,1.882v7.529L9.054,92,6,90.118V82.588l2-1.882v8.471Z"/>
  <path id="icon-opencart" class="cls-1" d="M0,96c2.314,2.439,4.479,2,13,2s4.645,3.973-.492,7.4C14.565,102.76,19.4,99.855,10,100,0.994,100.136.973,97.461,0,96Zm6,11.5a1.508,1.508,0,1,1-1.507-1.512A1.509,1.509,0,0,1,6,107.494Zm5.992,0a1.49,1.49,0,1,1-1.488-1.512A1.5,1.5,0,0,1,11.992,107.494Z"/>
  <path id="icon-wordpress" class="cls-1" d="M0.9,122a8.1,8.1,0,0,0,4.571,7.283L1.606,118.706A8.041,8.041,0,0,0,.9,122Zm13.564-.411a4.18,4.18,0,0,0-.663-2.231,3.827,3.827,0,0,1-.8-1.895,1.4,1.4,0,0,1,1.359-1.432h0.105a8.085,8.085,0,0,0-12.227,1.527c0.19,0,.369.01,0.516,0.01,0,0,.853-0.01,2.159-0.105a0.333,0.333,0,0,1,.053.663c-0.442.053-.927,0.084-0.927,0.084l2.949,8.758,1.769-5.3-1.264-3.453s-0.432-.042-0.843-0.084a0.333,0.333,0,0,1,.053-0.663c1.337,0.095,2.127.105,2.127,0.105s0.842-.01,2.159-0.105a0.333,0.333,0,0,1,.053.663c-0.442.053-.927,0.084-0.927,0.084l2.928,8.7,0.8-2.7A10.426,10.426,0,0,0,14.465,121.59Zm-5.329,1.116-2.422,7.052A7.848,7.848,0,0,0,9,130.1a8.1,8.1,0,0,0,2.685-.463,0.4,0.4,0,0,1-.053-0.116Zm6.961-4.589a5.207,5.207,0,0,1,.063.831,8.957,8.957,0,0,1-.621,2.905l-2.475,7.137A8.062,8.062,0,0,0,16.1,118.117ZM9,131a9,9,0,1,1,9-9A9.018,9.018,0,0,1,9,131Z"/>
  <path id="Icon-facebok" class="cls-1" d="M16,0H2A3.4,3.4,0,0,0,0,2V16a3.4,3.4,0,0,0,2,2H9V12H6V9H9V7a3.865,3.865,0,0,1,4-4c1.039,0,1.74-.037,2,0V6H14c-1.2,0-2,.171-2,1V9h3l-1,3H12v6h4a3.4,3.4,0,0,0,2-2V2A3.4,3.4,0,0,0,16,0Z"/>
  <path id="Icon-twitter" class="cls-1" d="M14.992,24.649a4.728,4.728,0,0,1-1.229,1.276,2.856,2.856,0,0,1,.012.316A7,7,0,0,1,3,32.141a4.765,4.765,0,0,0,.585.035,4.951,4.951,0,0,0,3.056-1.054,2.473,2.473,0,0,1-2.295-1.709,3.018,3.018,0,0,0,.457.047,2.05,2.05,0,0,0,.6-0.094,2.5,2.5,0,0,1-2.025-2.412V26.932a2.942,2.942,0,0,0,1.171.3,2.421,2.421,0,0,1-1.065-2.049,2.5,2.5,0,0,1,.339-1.241A6.986,6.986,0,0,0,8.9,26.522a2.235,2.235,0,0,1-.059-0.562,2.46,2.46,0,0,1,4.25-1.686,4.895,4.895,0,0,0,1.569-.6,2.486,2.486,0,0,1-1.089,1.37A5.189,5.189,0,0,0,14.992,24.649Zm3-2.271a3.372,3.372,0,0,0-3.372-3.372H3.379A3.372,3.372,0,0,0,.008,22.378V33.616a3.373,3.373,0,0,0,3.372,3.372H14.618a3.373,3.373,0,0,0,3.372-3.372V22.378Z"/>
  <path id="Icon-google" class="cls-1" d="M9.993,46.6a4.188,4.188,0,0,1-4.4,4.39,4.5,4.5,0,1,1,0-8.991,4.486,4.486,0,0,1,3.073,1.171L7.422,44.355a2.606,2.606,0,0,0-1.829-.691,2.833,2.833,0,1,0,0,5.666A2.446,2.446,0,0,0,8.187,47.4H5.593V45.853H9.921A4.448,4.448,0,0,1,9.993,46.6ZM15,48v2H13V48H11V46h2V44h2v2h2v2H15Zm2.989-6.622a3.372,3.372,0,0,0-3.372-3.372H3.379A3.372,3.372,0,0,0,.008,41.378V52.616a3.372,3.372,0,0,0,3.372,3.371H14.618a3.372,3.372,0,0,0,3.372-3.371V41.378Z"/>
  <path id="Icon-linkedin" class="cls-1" d="M17.989,60.378a3.372,3.372,0,0,0-3.372-3.371H3.379A3.372,3.372,0,0,0,.008,60.378V71.616a3.373,3.373,0,0,0,3.372,3.372H14.618a3.373,3.373,0,0,0,3.372-3.372V60.378ZM6,64H3v7H6V64Zm0-2.5a1.424,1.424,0,0,0-1.485-1.489,1.49,1.49,0,0,0-.032,2.979H4.5A1.429,1.429,0,0,0,6,61.5Zm8.987,5.634A2.916,2.916,0,0,0,12,64a3.6,3.6,0,0,0-3,1H9V64H7s0.029,0.889,0,7l-0.193-.006L10,71V67a0.9,0.9,0,0,1,1-1,1.063,1.063,0,0,1,1,1v4l2.988-.006V67.129Z"/>
</svg>
