<svg 
 xmlns="http://www.w3.org/2000/svg"
 xmlns:xlink="http://www.w3.org/1999/xlink"
 width="20px" height="16px">
<path fill-rule="evenodd"  fill="rgb(51, 51, 51)"
 d="M10.000,7.000 L16.000,7.000 L16.000,9.000 L10.000,9.000 L10.000,7.000 ZM10.000,4.000 L16.000,4.000 L16.000,6.000 L10.000,6.000 L10.000,4.000 ZM10.000,10.000 L16.000,10.000 L16.000,12.000 L10.000,12.000 L10.000,10.000 ZM18.000,0.000 L2.000,0.000 C1.000,0.000 0.000,0.964 0.000,2.000 L0.000,14.000 C0.000,15.036 1.000,16.000 2.000,16.000 L18.000,16.000 C19.000,16.000 20.000,15.036 20.000,14.000 L20.000,2.000 C20.000,0.964 19.000,0.000 18.000,0.000 ZM18.000,14.000 L8.000,14.000 L8.000,2.000 L18.000,2.000 L18.000,14.000 Z"/>
</svg>