<svg 
 xmlns="http://www.w3.org/2000/svg"
 xmlns:xlink="http://www.w3.org/1999/xlink"
 width="18px" height="20px">
<path fill-rule="evenodd"  fill="rgb(39, 80, 196)"
 d="M8.576,17.222 C7.781,18.020 6.812,18.425 5.667,18.437 C4.522,18.449 3.554,18.057 2.761,17.261 C1.968,16.464 1.572,15.485 1.573,14.324 C1.574,13.162 1.971,12.183 2.765,11.385 L11.816,2.292 C12.315,1.791 12.927,1.539 13.653,1.539 C14.378,1.539 14.990,1.788 15.489,2.289 C15.987,2.790 16.230,3.399 16.219,4.116 C16.206,4.834 15.951,5.444 15.452,5.945 L7.830,13.602 C7.626,13.807 7.388,13.910 7.116,13.910 C6.844,13.910 6.606,13.808 6.402,13.603 C6.198,13.398 6.090,13.153 6.079,12.869 C6.068,12.584 6.165,12.339 6.369,12.134 L13.277,5.194 L12.189,4.102 L5.282,11.042 C4.782,11.543 4.538,12.152 4.549,12.870 C4.559,13.587 4.814,14.196 5.313,14.697 C5.811,15.197 6.411,15.448 7.115,15.447 C7.817,15.447 8.418,15.196 8.917,14.694 L16.540,7.037 C17.334,6.239 17.736,5.265 17.749,4.115 C17.761,2.965 17.370,1.992 16.578,1.195 C15.785,0.399 14.810,0.001 13.654,0.002 C12.498,0.003 11.523,0.402 10.729,1.200 L1.678,10.293 C0.566,11.409 0.010,12.753 0.009,14.325 C0.007,15.896 0.562,17.239 1.672,18.354 C2.782,19.469 4.113,20.021 5.666,20.008 C7.219,19.996 8.551,19.431 9.663,18.315 L18.000,9.939 L16.912,8.847 L8.576,17.222 Z"/>
</svg>