<svg xmlns="http://www.w3.org/2000/svg" width="29" height="58" viewBox="0 0 29 58">
  <defs>
    <style>
      .cls-1 {
        fill: #a4a4a1;
      }

      .cls-1, .cls-2 {
        fill-rule: evenodd;
      }

      .cls-2 {
        fill: #fff;
      }
    </style>
  </defs>
  <path id="icon-dark" class="cls-1" d="M14.518,7A7.222,7.222,0,0,1,19.8,9.2,7.216,7.216,0,0,1,22,14.5a7.214,7.214,0,0,1-2.2,5.308,7.219,7.219,0,0,1-5.285,2.194,7.319,7.319,0,0,1-4.625-1.579A7.222,7.222,0,0,1,7.25,16.391H9.188a5.373,5.373,0,0,0,2.026,2.7,5.568,5.568,0,0,0,3.3,1.031A5.442,5.442,0,0,0,18.5,18.475,5.4,5.4,0,0,0,20.155,14.5a5.4,5.4,0,0,0-1.652-3.97,5.6,5.6,0,0,0-7.95.022l3.039,3.027H6.986V7L9.188,9.2A7.275,7.275,0,0,1,14.518,7h0Z"/>
  <path id="icon-light" class="cls-2" d="M14.518,36A7.223,7.223,0,0,1,19.8,38.2a7.5,7.5,0,0,1,0,10.617,7.219,7.219,0,0,1-5.285,2.194,7.319,7.319,0,0,1-4.625-1.579A7.222,7.222,0,0,1,7.25,45.391H9.188a5.373,5.373,0,0,0,2.026,2.7,5.568,5.568,0,0,0,3.3,1.031A5.442,5.442,0,0,0,18.5,47.475a5.6,5.6,0,0,0,0-7.941,5.6,5.6,0,0,0-7.95.022l3.039,3.027H6.986V36l2.2,2.194A7.276,7.276,0,0,1,14.518,36h0Z"/>
</svg>
