<svg xmlns="http://www.w3.org/2000/svg" width="15" height="30" viewBox="0 0 15 30">
  <defs>
    <style>
      .cls-1 {
        fill: #9e9e9e;
      }

      .cls-1, .cls-2 {
        fill-rule: evenodd;
      }

      .cls-2 {
        fill: #333;
      }
    </style>
  </defs>
  <path id="icon-remove-hover" class="cls-1" d="M5.357,7.5L0,2.143,2.143,0,7.5,5.357,12.857,0,15,2.143,9.643,7.5H5.357Zm0,0L0,12.857,2.143,15,7.5,9.643,12.857,15,15,12.857,9.643,7.5H5.357Z"/>
  <path id="icon-remove" class="cls-2" d="M5.357,22.5L0,17.143,2.143,15,7.5,20.357,12.857,15,15,17.143,9.643,22.5H5.357Zm0,0L0,27.857,2.143,30,7.5,24.643,12.857,30,15,27.857,9.643,22.5H5.357Z"/>
</svg>
