<svg 
 xmlns="http://www.w3.org/2000/svg"
 xmlns:xlink="http://www.w3.org/1999/xlink"
 width="17px" height="18px">
<path fill-rule="evenodd"  fill="rgb(158, 158, 158)"
 d="M16.441,17.467 C16.057,17.819 15.501,18.000 15.000,18.000 L2.000,18.000 C1.469,18.000 0.939,17.819 0.570,17.467 C0.201,17.115 -0.000,16.479 -0.000,16.000 L-0.000,4.000 C-0.000,3.521 0.201,2.685 0.570,2.319 C0.939,1.953 1.469,2.000 2.000,2.000 L3.000,2.000 L3.000,0.000 L5.000,0.000 L5.000,2.000 L12.000,2.000 L12.000,0.000 L14.000,0.000 L14.000,2.000 L15.000,2.000 C15.501,2.000 16.057,1.953 16.441,2.319 C16.824,2.685 17.000,3.521 17.000,4.000 L17.000,16.000 C17.000,16.479 16.824,17.115 16.441,17.467 ZM15.000,6.000 L2.000,6.000 L2.000,16.000 L15.000,16.000 L15.000,6.000 ZM4.996,9.008 L2.998,9.008 L2.998,7.015 L4.996,7.015 L4.996,9.008 ZM4.996,12.008 L2.998,12.008 L2.998,10.015 L4.996,10.015 L4.996,12.008 ZM4.996,15.008 L2.998,15.008 L2.998,13.015 L4.996,13.015 L4.996,15.008 ZM8.010,9.008 L5.993,9.008 L5.993,7.015 L8.010,7.015 L8.010,9.008 ZM8.010,12.008 L5.993,12.008 L5.993,10.015 L8.010,10.015 L8.010,12.008 ZM8.010,15.008 L5.993,15.008 L5.993,13.015 L8.010,13.015 L8.010,15.008 ZM11.004,9.008 L9.006,9.008 L9.006,7.015 L11.004,7.015 L11.004,9.008 ZM11.004,12.008 L9.006,12.008 L9.006,10.015 L11.004,10.015 L11.004,12.008 ZM11.004,15.008 L9.006,15.008 L9.006,13.015 L11.004,13.015 L11.004,15.008 ZM14.004,9.008 L12.006,9.008 L12.006,7.015 L14.004,7.015 L14.004,9.008 ZM14.004,12.008 L12.006,12.008 L12.006,10.015 L14.004,10.015 L14.004,12.008 ZM14.004,15.008 L12.006,15.008 L12.006,13.015 L14.004,13.015 L14.004,15.008 Z"/>
</svg>