<svg xmlns="http://www.w3.org/2000/svg" width="220" height="220" viewBox="0 0 220 220">
  <defs>
    <style>
      .cls-1 {
        fill: #fff;
        fill-rule: evenodd;
      }
    </style>
  </defs>
  <path id="uvdesk-logo" class="cls-1" d="M198,105h8c1.911-.021,2.969,1,3,3v6H195v-6C195,106,195.988,105.008,198,105Zm-16,36h-4V83h4c4.2,0,9,4.855,9,9v40C191,136.145,186.2,141,182,141Zm27-23H195s8.435,68.4-66.056,75.813c0.049-.45-0.119,5.733,0,8.874C157.037,201.393,211.5,182.678,209,118Zm-84.993,80.5a8.5,8.5,0,1,1-8.5-8.488A8.495,8.495,0,0,1,124.007,198.5ZM44.539,184.938c-12.532-13.979-20.5-33.45-20.5-52.008L22.327,109.5c17.333-2.109,31.427-12.588,39.981-22.188,4.916,5.047,11.5,13.309,22.212,17.751,26.915,11.162,49.627,7.526,71.078-4.438l17.769-13.313s0.162,0.632,0-4.437C172,39.867,132.817,3,88.963,3h0A79.534,79.534,0,0,0,9,82.875v48.812c0,22.239,7.237,45.422,22.212,62.126C40.73,204.43,50.012,211.6,62.308,216l4.442-13.313C57.581,198.99,51.793,193.029,44.539,184.938Zm11.07-66.554A15.527,15.527,0,1,0,71.184,133.91,15.551,15.551,0,0,0,55.608,118.384Zm75.573,31.053a15.527,15.527,0,1,0-15.576-15.527A15.551,15.551,0,0,0,131.181,149.437Z"/>
</svg>
