<svg xmlns="http://www.w3.org/2000/svg" width="74" height="537" viewBox="0 0 74 537">
  <defs>
    <style>
      .cls-1, .cls-4 {
        fill: #fff;
      }

      .cls-1, .cls-10, .cls-11, .cls-12, .cls-13, .cls-14, .cls-15, .cls-16, .cls-17, .cls-2, .cls-6, .cls-7, .cls-8, .cls-9 {
        fill-rule: evenodd;
      }

      .cls-2 {
        fill: #333;
      }

      .cls-3, .cls-6 {
        fill: #9e9e9e;
      }

      .cls-11, .cls-5 {
        fill: #2ed04c;
      }

      .cls-5 {
        stroke: #2ed04c;
        stroke-linejoin: round;
        stroke-width: 2px;
      }

      .cls-7 {
        fill: #6f6f6f;
      }

      .cls-8 {
        fill: #4050b2;
      }

      .cls-9 {
        fill: #2750c4;
      }

      .cls-10 {
        fill: #ff5656;
      }

      .cls-12 {
        fill: #b1b1ae;
      }

      .cls-13 {
        fill: #f5d02a;
      }

      .cls-14 {
        fill: #fe8b1a;
      }

      .cls-15 {
        fill: #f0815f;
      }

      .cls-16 {
        fill: #436ebe;
      }

      .cls-17 {
        fill: #36c18b;
      }
    </style>
  </defs>
  <path id="Icon" class="cls-1" d="M17.282,521.7a1.056,1.056,0,0,1,0-1.486l3.2-3.22-3.2-3.22a1.056,1.056,0,0,1,0-1.486,1.04,1.04,0,0,1,1.477,0l3.938,3.963a1.055,1.055,0,0,1,0,1.486L18.759,521.7A1.04,1.04,0,0,1,17.282,521.7Z"/>
  <path id="Shape" class="cls-1" d="M16,427H29a1,1,0,0,1,0,2H16A1,1,0,0,1,16,427Zm-5,7H29a1,1,0,0,1,0,2H11A1,1,0,0,1,11,434Zm0,7H24a1,1,0,0,1,0,2H11A1,1,0,0,1,11,441Z"/>
  <path id="Shape-2" data-name="Shape" class="cls-2" d="M16,468H29a1,1,0,0,1,0,2H16A1,1,0,0,1,16,468Zm-5,7H29a1,1,0,0,1,0,2H11A1,1,0,0,1,11,475Zm0,7H24a1,1,0,0,1,0,2H11A1,1,0,0,1,11,482Z"/>
  <path id="language_icon" data-name="language=icon" class="cls-2" d="M62.076,382.2L60.543,380h2.962ZM61,389v-3.237l1.1-1.7,2.056,2.949L65,386.4l-2.284-3.276L64.744,380H66v-1H64.174l-0.013-.01-0.007.01H62v-1H61v1H59.846l-0.007-.01-0.013.01H58v1h1.275l2.189,3.141L60.906,384H56v-7H68v12H61Zm-1-3.606h0V396H49V385H60v0.394Zm-4.712,1.6H53.773l-2.768,7h1.453l0.75-1.977h2.634l0.745,1.977h1.427Zm-0.75,1.213q0.026,0.092.95,2.847H53.557ZM64,390h2v3.025L64,395H61v-2h3v-3Z"/>
  <path id="pin" class="cls-2" d="M11.642,410.821l-1.587,1.587-3.174-3.174L2.121,414l-2.116-2.116,4.761-4.76-3.174-3.174,1.587-1.587,1.587,1.587,4.761-4.761L7.939,397.6l1.587-1.586,8.463,8.463L16.4,406.061l-1.587-1.587-4.76,4.76Z"/>
  <path id="unpin" class="cls-2" d="M22.179,398.126l1.058-1.058,12.695,12.695-1.058,1.058Zm10.579,7.406-5.29-5.29,1.058-1.058L26.939,397.6l1.587-1.586,8.463,8.463L35.4,406.061l-1.587-1.587Zm-7.405-3.174,5.29,5.29-1.587,1.586,1.587,1.587-1.587,1.587-3.174-3.174L21.121,414l-2.116-2.116,4.761-4.76-3.174-3.174,1.587-1.587,1.587,1.587Z"/>
  <path id="icon-hint" class="cls-1" d="M60,360a8,8,0,1,1-8,8A8,8,0,0,1,60,360Zm1,9a0.54,0.54,0,0,1,.134-0.381,2.118,2.118,0,0,1,.389-0.477q0.293-.289.621-0.622c0.045-.046.134-0.147,0.266-0.3a1.911,1.911,0,0,0,.253-0.353q0.054-.117.191-0.387a1.9,1.9,0,0,0,.136-0.823,2.466,2.466,0,0,0-.8-1.949,3.32,3.32,0,0,0-4.2.083A3.45,3.45,0,0,0,57,366h2a1.9,1.9,0,0,1,.463-0.865,0.72,0.72,0,0,1,.593-0.311,0.709,0.709,0,0,1,.573.262,1,1,0,0,1,.218.657,0.979,0.979,0,0,1-.2.643l-0.928.968a3.7,3.7,0,0,0-.607.767A2.193,2.193,0,0,0,59,369v1h2v-1Zm-0.989,4a0.987,0.987,0,1,0-.709-0.289A0.963,0.963,0,0,0,60.011,373Z"/>
  <circle id="radio" class="cls-3" cx="10.5" cy="383.5" r="9.5"/>
  <circle id="radio-2" data-name="radio" class="cls-4" cx="10.5" cy="383.5" r="6.5"/>
  <circle id="radio-3" data-name="radio" class="cls-5" cx="33.5" cy="383.5" r="9.5"/>
  <path id="icon-check" class="cls-1" d="M28,384l4,4,7-7-2-2-5,5-2-2Z"/>
  <path id="icon-add" class="cls-6" d="M62,337H57v5H54v-5H49v-3h5v-5h3v5h5v3Z"/>
  <path id="icon-close" class="cls-6" d="M45.157,339.036l-2.121,2.121L39.5,337.621l-3.535,3.536-2.121-2.121,3.536-3.536-3.536-3.535,2.121-2.122,3.535,3.536,3.536-3.536,2.121,2.122L41.621,335.5Z"/>
  <path id="_" data-name="&lt;" class="cls-7" d="M14.667,351L9,357l5.671,6L16,361.6,11.655,357,16,352.408Z"/>
  <path id="_2" data-name="&gt;" class="cls-7" d="M36.333,351L42,357l-5.671,6L35,361.6,39.346,357,35,352.408Z"/>
  <path id="icon-download-link" class="cls-8" d="M5,330H9v6h3l-5,5-5-5H5v-6Z"/>
  <path id="icon-download-link-2" data-name="icon-download-link" class="cls-1" d="M58,346h4v6h3l-5,5-5-5h3v-6Z"/>
  <path id="icon-preview-link" class="cls-9" d="M21.46,336.013a1.9,1.9,0,0,0,.607,1.406,2.036,2.036,0,0,0,2.875,0,1.933,1.933,0,0,0,0-2.813,2.036,2.036,0,0,0-2.875,0A1.9,1.9,0,0,0,21.46,336.013Zm-1.374,0a3.184,3.184,0,0,1,1.006-2.36,3.447,3.447,0,0,1,4.823,0,3.27,3.27,0,0,1,0,4.719,3.447,3.447,0,0,1-4.823,0A3.184,3.184,0,0,1,20.087,336.013Zm-4.089,0a7.717,7.717,0,0,0,2.939,3.625,8.275,8.275,0,0,0,9.136,0,7.724,7.724,0,0,0,2.939-3.625,7.724,7.724,0,0,0-2.939-3.625,8.27,8.27,0,0,0-9.136,0A7.717,7.717,0,0,0,16,336.013h0Z"/>
  <path id="icon-update" class="cls-1" d="M61.483,281a7.5,7.5,0,0,0,0,15,7.32,7.32,0,0,0,4.625-1.58,7.223,7.223,0,0,0,2.643-4.036H66.812a5.372,5.372,0,0,1-2.026,2.7,5.564,5.564,0,0,1-3.3,1.031,5.616,5.616,0,1,1,3.964-9.564l-3.039,3.027h6.607V281l-2.2,2.194A7.276,7.276,0,0,0,61.483,281h0Z"/>
  <path id="icon-preview" class="cls-1" d="M43.46,289.013a1.9,1.9,0,0,0,.607,1.406,2.036,2.036,0,0,0,2.875,0,1.933,1.933,0,0,0,0-2.813,2.036,2.036,0,0,0-2.875,0A1.9,1.9,0,0,0,43.46,289.013Zm-1.374,0a3.184,3.184,0,0,1,1.006-2.36,3.447,3.447,0,0,1,4.823,0,3.27,3.27,0,0,1,0,4.719,3.447,3.447,0,0,1-4.823,0A3.182,3.182,0,0,1,42.087,289.013Zm-4.089,0a7.717,7.717,0,0,0,2.939,3.625,8.275,8.275,0,0,0,9.136,0,7.724,7.724,0,0,0,2.939-3.625,7.731,7.731,0,0,0-2.939-3.626,8.28,8.28,0,0,0-9.136,0A7.724,7.724,0,0,0,38,289.013h0Z"/>
  <path id="icon-link" class="cls-6" d="M59.559,257.542A4.836,4.836,0,0,1,56,259H53v-2h3a2.983,2.983,0,0,0,2.221-.813A2.872,2.872,0,0,0,59,254a2.811,2.811,0,0,0-.779-2.159A3.01,3.01,0,0,0,56,251H53v-2l3.038,0.014A4.973,4.973,0,0,1,61,254,4.856,4.856,0,0,1,59.559,257.542ZM48,253h8v2H48v-2Zm-2.221-1.159A2.811,2.811,0,0,0,45,254a2.872,2.872,0,0,0,.779,2.187A2.983,2.983,0,0,0,48,257h3v2H48a5,5,0,0,1-3.559-8.514,4.769,4.769,0,0,1,3.521-1.472L51,249v2H48A3.01,3.01,0,0,0,45.779,251.841Z"/>
  <path id="icon-category_" data-name="icon-category " class="cls-6" d="M19,289h2v-2l-2,0v2Zm4-2v2H37v-2H23Zm-4,6h2v-2l-2,0v2Zm4-2v2H37v-2H23Zm-4,6h2v-2l-2,0v2Zm4-2v2H37v-2H23Zm-4-10h2v-2l-2,0v2Zm4-2v2H37v-2H23Z"/>
  <path id="icon-more" class="cls-2" d="M13.5,300A13.5,13.5,0,1,1,0,313.5,13.5,13.5,0,0,1,13.5,300Zm-7,11A2.5,2.5,0,1,1,4,313.5,2.5,2.5,0,0,1,6.5,311Zm7,0a2.5,2.5,0,1,1-2.5,2.5A2.5,2.5,0,0,1,13.5,311Zm7,0a2.5,2.5,0,1,1-2.5,2.5A2.5,2.5,0,0,1,20.5,311Z"/>
  <path id="icon-article" class="cls-6" d="M12,281l-8.127,0a1.835,1.835,0,0,0-1.865,1.8L2,297.2A1.836,1.836,0,0,0,3.864,299H15.122A1.844,1.844,0,0,0,17,297.2L17,286Zm-2,7v-6l6,6H10Z"/>
  <path id="icon-alert" class="cls-1" d="M43,275v-5h2v5H43Zm0,3v-2h2v2H43Zm10.006,2L44,265l-9,15.007h18Z"/>
  <path id="icon-graph" class="cls-1" d="M34,269.011V274H32v-2.989L26,277l-3-3-4,4.008L16.992,276l6-6L26,273l3.989-4H27v-2h4.989L32,266.992,32,267h2v2L34.008,269Z"/>
  <path id="icon-priority" class="cls-1" d="M7.5,266A6.5,6.5,0,1,1,1,272.5,6.5,6.5,0,0,1,7.5,266Zm0,2A4.5,4.5,0,1,1,3,272.5,4.5,4.5,0,0,1,7.5,268Zm0,2A2.5,2.5,0,1,1,5,272.5,2.5,2.5,0,0,1,7.5,270Z"/>
  <path id="icon-close-2" data-name="icon-close" class="cls-2" d="M35.792,248.007L31,252.8l-4.792-4.792L25,249.215l4.792,4.792L25,258.8l1.208,1.208L31,255.215l4.792,4.792L37,258.8l-4.792-4.792L37,249.215Z"/>
  <path id="icon-add-2" data-name="icon-add" class="cls-2" d="M57,315v-4h4v-3H57v-4H54v4H50v3h4v4h3Z"/>
  <path id="icon-edit" class="cls-2" d="M17.99,249.77a0.8,0.8,0,0,0-.234-0.586L15.8,247.231a0.851,0.851,0,0,0-1.172,0l-1.524,1.524,3.125,3.125,1.524-1.524A0.794,0.794,0,0,0,17.99,249.77ZM2.99,262H6.115l9.219-9.219-3.125-3.125L2.99,258.872V262Z"/>
  <path id="Icon-textbox" class="cls-6" d="M0,188H24v7H0v-7Zm2,2H22v3H2v-3Z"/>
  <path id="Icon-textarea" class="cls-6" d="M25,182H49v18H25V182Zm2,2H47v14H27V184Zm2,2H45v2H29v-2Zm0,4H42v2H29v-2Zm0,4h7v2H29v-2Z"/>
  <path id="icon-dropdown" class="cls-6" d="M50,185H74v12H50V185Zm2,2H72v8H52v-8Zm10,2h8l-4,4Z"/>
  <path id="icon-radio" class="cls-6" d="M12,205a7,7,0,1,1-7,7A7,7,0,0,1,12,205Zm0,2a5,5,0,1,1-5,5A5,5,0,0,1,12,207Zm0,2a3,3,0,1,1-3,3A3,3,0,0,1,12,209Z"/>
  <path id="icon-checkbox" class="cls-6" d="M29,204H45v16H29V204Zm2,2H43v12H31V206Zm3.143,5.5,1.143,1.167L39.857,208,41,209.167,35.286,215,33,212.667Z"/>
  <path id="icon-file" class="cls-6" d="M53,202H71v20H53V202Zm2,2H69v16H55V204Zm1,1H68v2H56v-2Zm0,3H68v2H56v-2Zm0,3H68v2H56v-2Zm0,3H68v2H56v-2Zm0,3h6v2H56v-2Z"/>
  <path id="icon-calendar" class="cls-6" d="M20.441,241.467A2.191,2.191,0,0,1,19,242H6a2.08,2.08,0,0,1-1.43-.533A2.188,2.188,0,0,1,4,240V228a2.792,2.792,0,0,1,.57-1.681A1.893,1.893,0,0,1,6,226H7v-2H9v2h7v-2h2v2h1a1.968,1.968,0,0,1,1.441.319A2.694,2.694,0,0,1,21,228v12A2.112,2.112,0,0,1,20.441,241.467ZM19,230H6v10H19V230ZM9,233.008H7v-1.993H9v1.993Zm0,3H7v-1.993H9v1.993Zm0,3H7v-1.993H9v1.993Zm3.014-6H9.993v-1.993H12.01v1.993Zm0,3H9.993v-1.993H12.01v1.993Zm0,3H9.993v-1.993H12.01v1.993Zm2.994-6h-2v-1.993h2v1.993Zm0,3h-2v-1.993h2v1.993Zm0,3h-2v-1.993h2v1.993Zm3-6h-2v-1.993h2v1.993Zm0,3h-2v-1.993h2v1.993Zm0,3h-2v-1.993h2v1.993Z"/>
  <path id="icon-watch" class="cls-6" d="M44,228l-3-3,2-1,3,3Zm1,6.006a8.007,8.007,0,0,1-8,8.009,8.009,8.009,0,1,1,5.669-13.661A7.75,7.75,0,0,1,45,234.006ZM37,234v-5H35v6l3,3,2-1Zm-9-7,3-3,2,1-3,3Z"/>
  <path id="icon-calendar-watch" class="cls-6" d="M70.441,241.467A2.191,2.191,0,0,1,69,242H56a2.08,2.08,0,0,1-1.43-.533A2.188,2.188,0,0,1,54,240V228a2.792,2.792,0,0,1,.57-1.681A1.893,1.893,0,0,1,56,226h1v-2h2v2h7v-2h2v2h1a1.968,1.968,0,0,1,1.441.319A2.694,2.694,0,0,1,71,228v12A2.112,2.112,0,0,1,70.441,241.467ZM69,240H56V230H69v10Zm-8-4.917L63.857,238,65,236.833,62.714,234.5V231H61v4.083Z"/>
  <path id="icon-mail" class="cls-1" d="M64.99,161.738l-6.429-3.726V156.5l6.429,3.762,6.429-3.762v1.512Zm-6.429-6.75a1.54,1.54,0,0,0-1.109.457,1.43,1.43,0,0,0-.47,1.055v9a1.429,1.429,0,0,0,.47,1.055,1.536,1.536,0,0,0,1.109.457H71.419a1.537,1.537,0,0,0,1.109-.457A1.431,1.431,0,0,0,73,165.5v-9a1.433,1.433,0,0,0-.47-1.055,1.541,1.541,0,0,0-1.109-.457H58.561Z"/>
  <path id="icon-mail-link" class="cls-9" d="M64.99,174.738l-6.429-3.726V169.5l6.429,3.762,6.429-3.762v1.512Zm-6.429-6.75a1.54,1.54,0,0,0-1.109.457,1.43,1.43,0,0,0-.47,1.055v9a1.429,1.429,0,0,0,.47,1.055,1.536,1.536,0,0,0,1.109.457H71.419a1.537,1.537,0,0,0,1.109-.457A1.431,1.431,0,0,0,73,178.5v-9a1.433,1.433,0,0,0-.47-1.055,1.541,1.541,0,0,0-1.109-.457H58.561Z"/>
  <path id="icon-activity" class="cls-6" d="M23,10h3.538l3.692-7H32l6,10,2-3h5v3H41.308L39,19H38L31.154,7l-2.769,6H23V10Z"/>
  <path id="icon-activity-2" data-name="icon-activity" class="cls-1" d="M23,33h3.538l3.692-7H32l6,10,2-3h5v3H41.308L39,42H38L31.154,30l-2.769,6H23V33Z"/>
  <path id="icon-cog" class="cls-6" d="M17.1,11.788a5.376,5.376,0,0,0,0-1.568L18.835,8.9a0.4,0.4,0,0,0,.1-0.512L17.29,5.618a0.418,0.418,0,0,0-.5-0.176l-2.046.8a6.046,6.046,0,0,0-1.389-.784L13.041,3.338A0.4,0.4,0,0,0,12.639,3H9.352a0.4,0.4,0,0,0-.4.336L8.637,5.458a6.358,6.358,0,0,0-1.389.784L5.2,5.442a0.406,0.406,0,0,0-.5.176L3.057,8.387a0.388,0.388,0,0,0,.1.512L4.89,10.22A6.189,6.189,0,0,0,4.832,11a6.186,6.186,0,0,0,.058.784L3.156,13.109a0.4,0.4,0,0,0-.1.512L4.7,16.389a0.419,0.419,0,0,0,.5.176l2.046-.8a6.047,6.047,0,0,0,1.389.784L8.949,18.67a0.4,0.4,0,0,0,.4.336h3.287a0.4,0.4,0,0,0,.4-0.336l0.312-2.121a6.353,6.353,0,0,0,1.389-.784l2.046,0.8a0.406,0.406,0,0,0,.5-0.176l1.643-2.769a0.4,0.4,0,0,0-.1-0.512ZM11,13.8A2.8,2.8,0,1,1,13.871,11,2.842,2.842,0,0,1,11,13.8Z"/>
  <path id="icon-cog-2" data-name="icon-cog" class="cls-1" d="M17.1,34.788a5.376,5.376,0,0,0,0-1.568l1.734-1.32a0.4,0.4,0,0,0,.1-0.512L17.29,28.618a0.418,0.418,0,0,0-.5-0.176l-2.046.8a6.046,6.046,0,0,0-1.389-.784l-0.312-2.121a0.4,0.4,0,0,0-.4-0.336H9.352a0.4,0.4,0,0,0-.4.336L8.637,28.458a6.354,6.354,0,0,0-1.389.784l-2.046-.8a0.406,0.406,0,0,0-.5.176L3.057,31.387a0.388,0.388,0,0,0,.1.512L4.89,33.22a5.371,5.371,0,0,0,0,1.568L3.156,36.109a0.4,0.4,0,0,0-.1.512L4.7,39.39a0.419,0.419,0,0,0,.5.176l2.046-.8a6.04,6.04,0,0,0,1.389.784L8.949,41.67a0.4,0.4,0,0,0,.4.336h3.287a0.4,0.4,0,0,0,.4-0.336l0.312-2.121a6.349,6.349,0,0,0,1.389-.784l2.046,0.8a0.406,0.406,0,0,0,.5-0.176l1.643-2.769a0.4,0.4,0,0,0-.1-0.512ZM11,36.8A2.8,2.8,0,1,1,13.871,34,2.842,2.842,0,0,1,11,36.8Z"/>
  <path id="icon-alert-2" data-name="icon-alert" class="cls-6" d="M64,17s0.021-4.626,0-6c-0.026-4.093-1.252-7.093-5-8V2c0.03-1.106-1.281-1.991-2.529-1.993C55.382,0.005,54,.893,54,2V3c-3.766.907-5,3.893-5,8v6l-3,3-0.011,1h21L67,20Zm-4.05,6a3.483,3.483,0,0,1-6.9,0h6.9Z"/>
  <path id="icon-ellipses" class="cls-6" d="M71,0a3,3,0,1,1-3,3A3,3,0,0,1,71,0Zm0,9a3,3,0,1,1-3,3A3,3,0,0,1,71,9Zm0,9a3,3,0,1,1-3,3A3,3,0,0,1,71,18Z"/>
  <path id="icon-arrow" class="cls-2" d="M54.01,37.59L49.062,33l4.948-4.59L52.487,27,46,33l6.482,6Z"/>
  <path id="icon-remove" class="cls-1" d="M61.662,34.993L59,32.331l-2.662,2.662-1.331-1.331L57.669,31l-2.662-2.662,1.331-1.331L59,29.669l2.662-2.662,1.331,1.331L60.331,31l2.662,2.662Z"/>
  <path id="icon-remove-2" data-name="icon-remove" class="cls-2" d="M70.662,34.993L68,32.331l-2.662,2.662-1.331-1.331L66.669,31l-2.662-2.662,1.331-1.331L68,29.669l2.662-2.662,1.331,1.331L69.331,31l2.662,2.662Z"/>
  <path id="icon-remove-3" data-name="icon-remove" class="cls-10" d="M72.662,43.993L70,41.331l-2.662,2.662-1.331-1.331L68.669,40l-2.662-2.662,1.331-1.331L70,38.669l2.662-2.662,1.331,1.331L71.331,40l2.662,2.662Z"/>
  <path id="icon-error" class="cls-10" d="M10.5,46A10.5,10.5,0,1,1,0,56.5,10.5,10.5,0,0,1,10.5,46ZM10.494,58.988a1.506,1.506,0,1,1-1.5,1.506A1.5,1.5,0,0,1,10.494,58.988ZM8.995,50h3v8h-3V50Z"/>
  <path id="icon-success" class="cls-11" d="M32.5,46A10.5,10.5,0,1,1,22,56.5,10.5,10.5,0,0,1,32.5,46ZM36,52l2,2-7,7-4-4,2-2,2,2Z"/>
  <path id="icon-customize" class="cls-6" d="M48.793,53.509a2.517,2.517,0,0,1,.791-1.866,2.733,2.733,0,0,1,3.813,0,2.6,2.6,0,0,1,0,3.732,2.734,2.734,0,0,1-3.813,0A2.515,2.515,0,0,1,48.793,53.509Zm8.453,0a5.642,5.642,0,0,0-.036-0.739l1.619-1.232a0.333,0.333,0,0,0,.072-0.493l-1.547-2.606a0.354,0.354,0,0,0-.468-0.141l-1.906.739a5.965,5.965,0,0,0-1.295-.739L53.4,46.326a0.349,0.349,0,0,0-.36-0.317H49.944a0.349,0.349,0,0,0-.36.317L49.3,48.3A6.549,6.549,0,0,0,48,49.037L46.1,48.3a0.354,0.354,0,0,0-.468.141l-1.547,2.606a0.332,0.332,0,0,0,.072.493l1.619,1.232a7.633,7.633,0,0,0,0,1.479l-1.619,1.232a0.332,0.332,0,0,0-.072.493l1.547,2.606a0.354,0.354,0,0,0,.468.141L48,57.981a5.9,5.9,0,0,0,1.295.739l0.288,1.972a0.349,0.349,0,0,0,.36.317h3.094a0.349,0.349,0,0,0,.36-0.317l0.288-1.972a6.546,6.546,0,0,0,1.295-.739l1.906,0.739a0.354,0.354,0,0,0,.468-0.141L58.9,55.974a0.333,0.333,0,0,0-.072-0.493L57.21,54.248A5.628,5.628,0,0,0,57.246,53.509Z"/>
  <path id="icon-customize-2" data-name="icon-customize" class="cls-2" d="M63.793,53.509a2.517,2.517,0,0,1,.791-1.866,2.733,2.733,0,0,1,3.813,0,2.6,2.6,0,0,1,0,3.732,2.734,2.734,0,0,1-3.813,0A2.515,2.515,0,0,1,63.793,53.509Zm8.453,0a5.642,5.642,0,0,0-.036-0.739l1.619-1.232a0.333,0.333,0,0,0,.072-0.493l-1.547-2.606a0.354,0.354,0,0,0-.468-0.141l-1.907.739a5.965,5.965,0,0,0-1.295-.739L68.4,46.326a0.349,0.349,0,0,0-.36-0.317H64.944a0.349,0.349,0,0,0-.36.317L64.3,48.3A6.549,6.549,0,0,0,63,49.037L61.1,48.3a0.354,0.354,0,0,0-.468.141l-1.547,2.606a0.332,0.332,0,0,0,.072.493l1.619,1.232a7.633,7.633,0,0,0,0,1.479l-1.619,1.232a0.332,0.332,0,0,0-.072.493l1.547,2.606a0.354,0.354,0,0,0,.468.141L63,57.981a5.9,5.9,0,0,0,1.295.739l0.288,1.972a0.349,0.349,0,0,0,.36.317h3.094a0.349,0.349,0,0,0,.36-0.317l0.288-1.972a6.546,6.546,0,0,0,1.295-.739l1.907,0.739a0.354,0.354,0,0,0,.468-0.141L73.9,55.974a0.333,0.333,0,0,0-.072-0.493L72.21,54.248A5.628,5.628,0,0,0,72.246,53.509Z"/>
  <path id="icon-add-3" data-name="icon-add" class="cls-1" d="M65,41H61v4H59V41H55V39h4V35h2v4h4v2Z"/>
  <path id="icon-add-dark" class="cls-2" d="M10,176H6v4H4v-4H0v-2H4v-4H6v4h4v2Z"/>
  <path id="icon-remove-4" data-name="icon-remove" class="cls-1" d="M66.662,69.993L64,67.331l-2.662,2.662-1.331-1.331L62.669,66l-2.662-2.662,1.331-1.331L64,64.669l2.662-2.662,1.331,1.331L65.331,66l2.662,2.662Z"/>
  <path id="icon-desc" class="cls-6" d="M8,76V68H4v8H0l6,6,6-6H8Z"/>
  <path id="icon-desc-2" data-name="icon-desc" class="cls-2" d="M8,91V83H4v8H0l6,6,6-6H8Z"/>
  <path id="icon-ascd" class="cls-6" d="M21,74v8H17V74H13l6-6,6,6H21Z"/>
  <path id="icon-ascd-2" data-name="icon-ascd" class="cls-2" d="M21,89v8H17V89H13l6-6,6,6H21Z"/>
  <path id="icon-hamburger" class="cls-6" d="M27,76H39a1,1,0,0,1,0,2H27A1,1,0,0,1,27,76Zm0-4H39a1,1,0,0,1,0,2H27A1,1,0,0,1,27,72Zm0-4H39a1,1,0,0,1,0,2H27A1,1,0,0,1,27,68Z"/>
  <path id="star" class="cls-12" d="M5.619,112.85l0.888-4.05-3-2.759,3.974-.356L9,101.857l1.522,3.828,3.974,0.356-3,2.759,0.888,4.05L9,110.714Zm5.919-8.59L9,97.985,6.464,104.26,0,104.839l4.9,4.5-1.48,6.676L9,112.449l5.58,3.561-1.48-6.676,4.9-4.5Z"/>
  <path id="starred" class="cls-13" d="M30.538,104.26L28,97.985l-2.537,6.275L19,104.839l4.9,4.5-1.48,6.676L28,112.449l5.58,3.561-1.48-6.676,4.9-4.5Z"/>
  <path id="icon-thunder" class="cls-2" d="M26,89h4v8l6-11H31l2-7H26V89Z"/>
  <path id="_3" data-name="&lt;" class="cls-12" d="M47.03,67.993L51,64l-1-2-6,6,6,6,1-2Z"/>
  <path id="_4" data-name="&lt;" class="cls-1" d="M47.03,80.993L51,77l-1-2-6,6,6,6,1-2Z"/>
  <path id="_5" data-name="&gt;" class="cls-12" d="M55.971,67.993L52,64l1-2,6,6-6,6-1-2Z"/>
  <path id="_6" data-name="&gt;" class="cls-1" d="M55.971,80.993L52,77l1-2,6,6-6,6-1-2Z"/>
  <path id="icon-toggle" class="cls-6" d="M39.5,88h17a1.5,1.5,0,0,1,0,3h-17A1.5,1.5,0,0,1,39.5,88Zm0,6h17a1.5,1.5,0,0,1,0,3h-17A1.5,1.5,0,0,1,39.5,94Zm0,6h17a1.5,1.5,0,0,1,0,3h-17A1.5,1.5,0,0,1,39.5,100Z"/>
  <path id="icon-info" class="cls-6" d="M45,110v-2h2v2H45Zm0,6v-5h2v5H45Zm-7-4.014a7.994,7.994,0,0,0,13.653,5.653,7.994,7.994,0,1,0-11.305-11.3A7.7,7.7,0,0,0,38,111.986Z"/>
  <path id="icon-reply" class="cls-6" d="M6.714,119L1,124.909l5.714,5.909v-3.545a12.473,12.473,0,0,1,10.3,4.737,13.179,13.179,0,0,0-3.1-6.317c-1.57-1.747-4.3-2.741-7.192-3.148V119Z"/>
  <path id="icon-clock" class="cls-6" d="M35,121l-3-3,2-1,3,3Zm1,6.006a8.007,8.007,0,0,1-8,8.009,8.009,8.009,0,1,1,5.669-13.661A7.75,7.75,0,0,1,36,127.006ZM28,127v-5H26v6l3,3,2-1Zm-9-7,3-3,2,1-3,3Z"/>
  <path id="icon-ellipses-2" data-name="icon-ellipses" class="cls-2" d="M62,117a1.879,1.879,0,1,1-2,1.875A1.94,1.94,0,0,1,62,117Zm0,5.625a1.879,1.879,0,1,1-2,1.875A1.94,1.94,0,0,1,62,122.625Zm0,5.625a1.879,1.879,0,1,1-2,1.875A1.94,1.94,0,0,1,62,128.25Z"/>
  <path id="_7" data-name="&gt;" class="cls-6" d="M70.989,81.008l-5.981,5.981h5.981V81.008Z"/>
  <path id="v" class="cls-6" d="M65,71v8l4-4Z"/>
  <path id="icon-not-popular" class="cls-6" d="M4.364,150.22a2.606,2.606,0,0,1-.763-1.9,2.538,2.538,0,0,1,2.288-2.635,5.982,5.982,0,0,0,3.775-2.195,12.972,12.972,0,0,1,.458,3.432A4.029,4.029,0,0,1,9,149.82,3.672,3.672,0,0,1,6.232,151,2.517,2.517,0,0,1,4.364,150.22Zm3.5-13.582q0.151,0.594.3,1.622a12.649,12.649,0,0,1,.152,1.819,3.272,3.272,0,0,1-.779,2.234,2.532,2.532,0,0,1-1.995.889,2.717,2.717,0,0,1-2.09-.909,3.153,3.153,0,0,1-.836-2.214v-0.317A11.6,11.6,0,0,0,0,147.275a6.6,6.6,0,0,0,1.9,4.745A6.138,6.138,0,0,0,6.5,154a6.139,6.139,0,0,0,4.6-1.977,6.6,6.6,0,0,0,1.9-4.745,14.208,14.208,0,0,0-1.425-6.267,15.051,15.051,0,0,0-3.857-5Z"/>
  <path id="icon-not-popular-hover" class="cls-2" d="M18.364,150.22a2.606,2.606,0,0,1-.763-1.9,2.538,2.538,0,0,1,2.288-2.635,5.981,5.981,0,0,0,3.775-2.195,12.972,12.972,0,0,1,.458,3.432A4.029,4.029,0,0,1,23,149.82,3.671,3.671,0,0,1,20.233,151,2.517,2.517,0,0,1,18.364,150.22Zm3.5-13.582q0.151,0.594.3,1.622a12.653,12.653,0,0,1,.152,1.819,3.272,3.272,0,0,1-.779,2.234,2.532,2.532,0,0,1-1.995.889,2.717,2.717,0,0,1-2.09-.909,3.153,3.153,0,0,1-.836-2.214v-0.317A11.6,11.6,0,0,0,14,147.275a6.6,6.6,0,0,0,1.9,4.745,6.335,6.335,0,0,0,9.2,0,6.6,6.6,0,0,0,1.9-4.745,14.208,14.208,0,0,0-1.425-6.267,15.051,15.051,0,0,0-3.857-5Z"/>
  <path id="icon-popular" class="cls-14" d="M32.364,150.22a2.606,2.606,0,0,1-.763-1.9,2.538,2.538,0,0,1,2.288-2.635,5.981,5.981,0,0,0,3.775-2.195,12.972,12.972,0,0,1,.458,3.432A4.029,4.029,0,0,1,37,149.82,3.671,3.671,0,0,1,34.233,151,2.517,2.517,0,0,1,32.364,150.22Zm3.5-13.582q0.151,0.594.3,1.622a12.653,12.653,0,0,1,.152,1.819,3.272,3.272,0,0,1-.779,2.234,2.532,2.532,0,0,1-1.995.889,2.717,2.717,0,0,1-2.09-.909,3.153,3.153,0,0,1-.836-2.214v-0.317A11.6,11.6,0,0,0,28,147.275a6.6,6.6,0,0,0,1.9,4.745,6.335,6.335,0,0,0,9.2,0,6.6,6.6,0,0,0,1.9-4.745,14.208,14.208,0,0,0-1.425-6.267,15.051,15.051,0,0,0-3.857-5Z"/>
  <path id="icon-folder" class="cls-6" d="M45,121l-5.2,0a2.014,2.014,0,0,0-1.8,2v10a2.191,2.191,0,0,0,2,2H54a2.191,2.191,0,0,0,2-2v-8a2.191,2.191,0,0,0-2-2H47Z"/>
  <path id="icon-pan" class="cls-6" d="M59,98H73a1,1,0,0,1,0,2H59A1,1,0,0,1,59,98Zm0-10H73a1,1,0,0,1,0,2H59A1,1,0,0,1,59,88Zm0,5H73a1,1,0,0,1,0,2H59A1,1,0,0,1,59,93Z"/>
  <path id="icon-pan-hover" class="cls-2" d="M59,111H73a1,1,0,0,1,0,2H59A1,1,0,0,1,59,111Zm0-10H73a1,1,0,0,1,0,2H59A1,1,0,0,1,59,101Zm0,5H73a1,1,0,0,1,0,2H59A1,1,0,0,1,59,106Z"/>
  <path id="icon-pinned" class="cls-15" d="M54,144v3H50v7H46v-7H42v-3h2v-5H42v-3H54v3H52v5h2Z"/>
  <path id="icon-lock" class="cls-16" d="M59.3,142.039v-1.728a2.525,2.525,0,0,1,.8-1.868,2.708,2.708,0,0,1,3.811,0,2.525,2.525,0,0,1,.8,1.868v1.728H59.3Zm0.691,5.954a1.932,1.932,0,0,1,.6-1.4,1.9,1.9,0,0,1,2.785,0,1.931,1.931,0,0,1,0,2.8,1.9,1.9,0,0,1-2.785,0A1.931,1.931,0,0,1,59.991,147.993Zm6.4-5.954v-1.728a4.1,4.1,0,0,0-1.291-3.033,4.414,4.414,0,0,0-6.188,0,4.1,4.1,0,0,0-1.291,3.033v1.728L57,142a2.39,2.39,0,0,0-1.471.541A2.211,2.211,0,0,0,55,144v8a1.788,1.788,0,0,0,2,2H67a2.365,2.365,0,0,0,1.479-.49A2.339,2.339,0,0,0,69,152v-8a2.206,2.206,0,0,0-.52-1.459A2.416,2.416,0,0,0,67,142Z"/>
  <path id="icon-alert-3" data-name="icon-alert" class="cls-6" d="M8,165v-5h2v5H8Zm0,3v-2h2v2H8Zm10.006,2L9,155,0,170.005h18Z"/>
  <path id="icon-graph-2" data-name="icon-graph" class="cls-6" d="M37,160.011V165H35v-2.989L29,168l-3-3-4,4.008L19.992,167l6-6L29,164l3.989-4H30v-2h4.989L35,157.992,35,158h2v2L37.008,160Z"/>
  <path id="icon-marked-task" class="cls-17" d="M43,168v-2H38v2h5Zm-4.985-9.984L38,160h9v-2ZM38,162v2h5v-2H38Zm11,2-2-2-2,2,4,4,7-7-2-2Z"/>
  <path id="icon-trash" class="cls-2" d="M40,302l-2-2H34l-2,2H29v2H43v-2H40Zm-9.25,15.25A1.609,1.609,0,0,0,32,318h8a1.586,1.586,0,0,0,1.25-.75A1.657,1.657,0,0,0,42,316V305H30v11A1.607,1.607,0,0,0,30.75,317.25Z"/>
  <path id="icon-whats-new" class="cls-6" d="M57.8,410.251a5.265,5.265,0,0,0-1.526,3.662H53.707v-0.672a5.264,5.264,0,0,1,1.526-3.661l1.587-1.648a2.59,2.59,0,1,0-4.455-1.831H49.8a5.188,5.188,0,0,1,10.375,0,3.994,3.994,0,0,1-1.221,2.929Zm-4.089,8.85v-2.564H56.27V419.1H53.707Zm-11.718-9.094a13.024,13.024,0,0,0,13,13A13,13,0,1,0,45.8,400.821,12.524,12.524,0,0,0,41.988,410.007Z"/>
</svg>
